# xmcd
#
# Track frame offsets: 
#        150
#        18075
#        38532
#        61285
#
# Disc length: 1208 seconds
#
# Revision: 0
# Processed by: cddbd v1.5.2PL0 Copyright (c) Steve Scherf et al.
# Submitted via: ExactAudioCopy v0.95a3
#
DISCID=2204b604
DTITLE=Bonnie Raitt - Rock Steady (Maxi CD)
DYEAR=1995
DGENRE=Blues
TTITLE0=Rock Steady (with Bryan Adams)
TTITLE1=Thing Called Love (with Bruce Hornsby)
TTITLE2=Come To Me
TTITLE3=Feeling Of Falling
EXTD=
EXTT0=
EXTT1=
EXTT2=
EXTT3=
PLAYORDER=
